<svg xmlns="http://www.w3.org/2000/svg" width="256" height="256" viewBox="0 0 100 100"><rect width="100" height="100" rx="20" fill="#111133"></rect><path d="M43.83 23.18Q43.83 24.08 42.93 24.08L42.93 24.08L22.05 24.08Q21.69 24.08 21.69 24.44L21.69 24.44L21.69 46.76Q21.69 47.12 22.05 47.12L22.05 47.12L35.19 47.12Q36.09 47.12 36.09 48.02L36.09 48.02L36.09 51.89Q36.09 52.79 35.19 52.79L35.19 52.79L22.05 52.79Q21.69 52.79 21.69 53.15L21.69 53.15L21.69 75.56Q21.69 75.92 22.05 75.92L22.05 75.92L42.93 75.92Q43.83 75.92 43.83 76.82L43.83 76.82L43.83 80.60Q43.83 81.50 42.93 81.50L42.93 81.50L16.20 81.50Q15.30 81.50 15.30 80.60L15.30 80.60L15.30 19.40Q15.30 18.50 16.20 18.50L16.20 18.50L42.93 18.50Q43.83 18.50 43.83 19.40L43.83 19.40L43.83 23.18ZM84.69 64.40Q84.78 72.50 80.37 77Q75.96 81.50 68.58 81.50L68.58 81.50L54.81 81.50Q53.91 81.50 53.91 80.60L53.91 80.60L53.91 19.40Q53.91 18.50 54.81 18.50L54.81 18.50L67.77 18.50Q75.51 18.50 79.92 22.78Q84.33 27.05 84.33 34.97L84.33 34.97Q84.33 45.05 76.86 48.74L76.86 48.74Q76.68 48.83 76.68 48.92Q76.68 49.01 76.77 49.10L76.77 49.10Q84.69 53.69 84.69 64.40L84.69 64.40ZM60.66 24.08Q60.30 24.08 60.30 24.44L60.30 24.44L60.30 46.13Q60.30 46.49 60.66 46.49L60.66 46.49L67.77 46.49Q72.63 46.49 75.33 43.61Q78.03 40.73 78.03 35.51L78.03 35.51Q78.03 30.11 75.33 27.09Q72.63 24.08 67.77 24.08L67.77 24.08L60.66 24.08ZM68.13 75.83Q72.90 75.83 75.60 72.64Q78.30 69.44 78.30 63.68L78.30 63.68Q78.30 57.83 75.60 54.59Q72.90 51.35 68.13 51.35L68.13 51.35L60.66 51.35Q60.30 51.35 60.30 51.71L60.30 51.71L60.30 75.47Q60.30 75.83 60.66 75.83L60.66 75.83L68.13 75.83Z" fill="#fff"></path></svg>